<svg xmlns="http://www.w3.org/2000/svg" style="display: none;">
  <!-- SAP Integration Icon -->
  <symbol id="sap-integration" viewBox="0 0 24 24">
    <path fill="currentColor" d="M12 2L2 7v10c0 5.55 3.84 9.74 9 11 5.16-1.26 9-5.45 9-11V7l-10-5zm-1 9H9v2h2v2h2v-2h2v-2h-2V9h2V7h-2V5h-2v2H9v2h2v2z"/>
  </symbol>
  
  <!-- Cloud Icon -->
  <symbol id="cloud" viewBox="0 0 24 24">
    <path fill="currentColor" d="M19.35 10.04C18.67 6.59 15.64 4 12 4 9.11 4 6.6 5.64 5.35 8.04 2.34 8.36 0 10.91 0 14c0 3.31 2.69 6 6 6h13c2.76 0 5-2.24 5-5 0-2.64-2.05-4.78-4.65-4.96z"/>
  </symbol>
  
  <!-- Code Icon -->
  <symbol id="code" viewBox="0 0 24 24">
    <path fill="currentColor" d="M9.4 16.6L4.8 12l4.6-4.6L8 6l-6 6 6 6 1.4-1.4zm5.2 0l4.6-4.6-4.6-4.6L16 6l6 6-6 6-1.4-1.4z"/>
  </symbol>
  
  <!-- Robot/AI Icon -->
  <symbol id="robot" viewBox="0 0 24 24">
    <path fill="currentColor" d="M12 2c1.1 0 2 .9 2 2s-.9 2-2 2-2-.9-2-2 .9-2 2-2zM21 9V7l-2-2v4h-3.5V7h-7v2H5V7L3 9v2c0 2.12 1.66 3.84 3.75 3.97L6.5 15v3h2v-3l.25-.03C9.34 12.84 11 11.12 11 9V7h2v2c0 2.12 1.66 3.84 3.75 3.97L16.5 15v3h2v-3l-.25-.03c2.09-.13 3.75-1.85 3.75-3.97V9zM9 11.5c-.83 0-1.5-.67-1.5-1.5s.67-1.5 1.5-1.5 1.5.67 1.5 1.5-.67 1.5-1.5 1.5zm6 0c-.83 0-1.5-.67-1.5-1.5s.67-1.5 1.5-1.5 1.5.67 1.5 1.5-.67 1.5-1.5 1.5z"/>
  </symbol>
  
  <!-- Network Icon -->
  <symbol id="network" viewBox="0 0 24 24">
    <path fill="currentColor" d="M13 21v-2h3v-2h-3v-2h3v-2h-3v-2h3V9h-3V7h3V5h-3V3h3V1h-3c-1.1 0-2 .9-2 2v18c0 1.1.9 2 2 2h3v-2h-3zM11 21v-2H8v-2h3v-2H8v-2h3v-2H8V9h3V7H8V5h3V3H8V1h3c1.1 0 2 .9 2 2v18c0 1.1-.9 2-2 2H8v-2h3z"/>
  </symbol>
  
  <!-- Calculator Icon -->
  <symbol id="calculator" viewBox="0 0 24 24">
    <path fill="currentColor" d="M19 3H5c-1.1 0-2 .9-2 2v14c0 1.1.9 2 2 2h14c1.1 0 2-.9 2-2V5c0-1.1-.9-2-2-2zm-4 6h-2V7h2v2zm0 2h-2v2h2v-2zm-2 4h-2v2h2v-2zm-4-6H7V7h2v2zm0 2H7v2h2v-2zm0 4H7v2h2v-2z"/>
  </symbol>
  
  <!-- File Invoice Icon -->
  <symbol id="file-invoice" viewBox="0 0 24 24">
    <path fill="currentColor" d="M14 2H6c-1.1 0-2 .9-2 2v16c0 1.1.89 2 2 2h12c1.1 0 2-.9 2-2V8l-6-6zm-1 7V3.5L18.5 9H13z"/>
  </symbol>
  
  <!-- Heart Icon -->
  <symbol id="heart" viewBox="0 0 24 24">
    <path fill="currentColor" d="M12 21.35l-1.45-1.32C5.4 15.36 2 12.28 2 8.5 2 5.42 4.42 3 7.5 3c1.74 0 3.41.81 4.5 2.09C13.09 3.81 14.76 3 16.5 3 19.58 3 22 5.42 22 8.5c0 3.78-3.4 6.86-8.55 11.54L12 21.35z"/>
  </symbol>
  
  <!-- Chart Line Icon -->
  <symbol id="chart-line" viewBox="0 0 24 24">
    <path fill="currentColor" d="M16 6l2.29 2.29-4.88 4.88-4-4L2 16.59 3.41 18l6-6 4 4 6.3-6.29L22 12V6h-6z"/>
  </symbol>
  
  <!-- Email Icon -->
  <symbol id="email" viewBox="0 0 24 24">
    <path fill="currentColor" d="M20 4H4c-1.1 0-1.99.9-1.99 2L2 18c0 1.1.9 2 2 2h16c1.1 0 2-.9 2-2V6c0-1.1-.9-2-2-2zm0 4l-8 5-8-5V6l8 5 8-5v2z"/>
  </symbol>
  
  <!-- LinkedIn Icon -->
  <symbol id="linkedin" viewBox="0 0 24 24">
    <path fill="currentColor" d="M20.447 20.452h-3.554v-5.569c0-1.328-.027-3.037-1.852-3.037-1.853 0-2.136 1.445-2.136 2.939v5.667H9.351V9h3.414v1.561h.046c.477-.9 1.637-1.85 3.37-1.85 3.601 0 4.267 2.37 4.267 5.455v6.286zM5.337 7.433c-1.144 0-2.063-.926-2.063-2.065 0-1.138.92-2.063 2.063-2.063 1.14 0 2.064.925 2.064 2.063 0 1.139-.925 2.065-2.064 2.065zm1.782 13.019H3.555V9h3.564v11.452zM22.225 0H1.771C.792 0 0 .774 0 1.729v20.542C0 23.227.792 24 1.771 24h20.451C23.2 24 24 23.227 24 22.271V1.729C24 .774 23.2 0 22.222 0h.003z"/>
  </symbol>
  
  <!-- Location Icon -->
  <symbol id="location" viewBox="0 0 24 24">
    <path fill="currentColor" d="M12 2C8.13 2 5 5.13 5 9c0 5.25 7 13 7 13s7-7.75 7-13c0-3.87-3.13-7-7-7zm0 9.5c-1.38 0-2.5-1.12-2.5-2.5s1.12-2.5 2.5-2.5 2.5 1.12 2.5 2.5-1.12 2.5-2.5 2.5z"/>
  </symbol>
  
  <!-- Download Icon -->
  <symbol id="download" viewBox="0 0 24 24">
    <path fill="currentColor" d="M19 9h-4V3H9v6H5l7 7 7-7zM5 18v2h14v-2H5z"/>
  </symbol>
  
  <!-- Menu/Hamburger Icon -->
  <symbol id="menu" viewBox="0 0 24 24">
    <path fill="currentColor" d="M3 18h18v-2H3v2zm0-5h18v-2H3v2zm0-7v2h18V6H3z"/>
  </symbol>
  
  <!-- Close Icon -->
  <symbol id="close" viewBox="0 0 24 24">
    <path fill="currentColor" d="M19 6.41L17.59 5 12 10.59 6.41 5 5 6.41 10.59 12 5 17.59 6.41 19 12 13.41 17.59 19 19 17.59 13.41 12z"/>
  </symbol>
  
  <!-- Chevron Down Icon -->
  <symbol id="chevron-down" viewBox="0 0 24 24">
    <path fill="currentColor" d="M7.41 8.84L12 13.42l4.59-4.58L18 10.25l-6 6-6-6z"/>
  </symbol>
  
  <!-- Star Icon -->
  <symbol id="star" viewBox="0 0 24 24">
    <path fill="currentColor" d="M12 17.27L18.18 21l-1.64-7.03L22 9.24l-7.19-.61L12 2 9.19 8.63 2 9.24l5.46 4.73L5.82 21z"/>
  </symbol>
</svg>
